<?xml version="1.0" encoding="UTF-8"?>
<svg version="1.1" xmlns="http://www.w3.org/2000/svg" width="499" height="500">
<path d="M0 0 C0.68703003 0.00027191 1.37406006 0.00054382 2.08190918 0.00082397 C12.16301729 0.01916447 21.85919095 0.48273111 31.8125 2.1875 C33.34841809 2.41129175 34.88491891 2.63110809 36.421875 2.84765625 C46.7446107 4.33314332 56.76346882 6.41130851 66.8125 9.1875 C67.51117188 9.37570313 68.20984375 9.56390625 68.9296875 9.7578125 C78.19811232 12.2673138 87.05529142 15.2005009 95.78808594 19.24951172 C97.25685283 19.93004746 98.72937057 20.60250654 100.20410156 21.27001953 C112.34576662 26.77206986 123.66739429 32.88691994 134.8125 40.1875 C135.781875 40.73535156 136.75125 41.28320312 137.75 41.84765625 C138.430625 42.28980469 139.11125 42.73195312 139.8125 43.1875 C139.8125 43.8475 139.8125 44.5075 139.8125 45.1875 C140.4828125 45.39632812 141.153125 45.60515625 141.84375 45.8203125 C145.84950089 47.6650662 148.93332388 50.25721521 152.3125 53.0625 C153.01375 53.63895264 153.715 54.21540527 154.4375 54.80932617 C161.12905221 60.35910198 167.52948243 66.18218486 173.8125 72.1875 C174.56015625 72.89390625 175.3078125 73.6003125 176.078125 74.328125 C189.31032772 87.14356543 199.88575151 102.74541023 209.8125 118.1875 C210.40675781 119.10402344 211.00101562 120.02054687 211.61328125 120.96484375 C221.735361 137.41624306 229.01418867 155.81948528 234.8125 174.1875 C235.12574219 175.17105469 235.43898438 176.15460938 235.76171875 177.16796875 C236.54092268 179.82715675 237.19510411 182.4859469 237.8125 185.1875 C237.96283691 185.81865723 238.11317383 186.44981445 238.26806641 187.10009766 C247.52499256 226.57047704 246.8500264 266.973096 236.8125 306.1875 C236.47412109 307.53231445 236.47412109 307.53231445 236.12890625 308.90429688 C231.37395535 327.50770648 224.12402147 344.44241098 214.8125 361.1875 C214.32265625 362.1259375 213.8328125 363.064375 213.328125 364.03125 C206.30272544 377.45055253 197.31073406 389.44367706 187.8125 401.1875 C187.08804687 402.14398438 186.36359375 403.10046875 185.6171875 404.0859375 C185.02164062 404.77945312 184.42609375 405.47296875 183.8125 406.1875 C183.1525 406.1875 182.4925 406.1875 181.8125 406.1875 C181.4721875 406.991875 181.4721875 406.991875 181.125 407.8125 C178.00325413 413.46137348 173.53588791 417.44633155 168.67578125 421.57421875 C166.67035564 423.26456634 166.67035564 423.26456634 164.4375 425.625 C162.8125 427.1875 162.8125 427.1875 160.8125 427.1875 C160.4825 428.1775 160.1525 429.1675 159.8125 430.1875 C158.37646484 431.56274414 158.37646484 431.56274414 156.5234375 432.97265625 C155.83644775 433.49851318 155.14945801 434.02437012 154.44165039 434.56616211 C153.69778076 435.12182861 152.95391113 435.67749512 152.1875 436.25 C151.42493896 436.82564697 150.66237793 437.40129395 149.87670898 437.99438477 C142.70960558 443.35616497 135.3480837 448.36153864 127.8125 453.1875 C127.01457031 453.71472656 126.21664063 454.24195313 125.39453125 454.78515625 C106.98293664 466.48385088 85.54795928 474.63787167 64.8125 481.1875 C64.8125 481.5175 64.8125 481.8475 64.8125 482.1875 C66.7925 482.8475 68.7725 483.5075 70.8125 484.1875 C71.1425 486.1675 71.4725 488.1475 71.8125 490.1875 C58.6125 490.1875 45.4125 490.1875 31.8125 490.1875 C33.8125 488.1875 33.8125 488.1875 36.8125 487.1875 C35.75160156 487.2596875 34.69070313 487.331875 33.59765625 487.40625 C22.29256261 488.10458619 11.0104116 488.29864222 -0.3125 488.3125 C-1.0236496 488.31499756 -1.73479919 488.31749512 -2.46749878 488.32006836 C-10.42338494 488.34299301 -18.28757216 488.22677729 -26.1875 487.1875 C-25.8575 488.1775 -25.5275 489.1675 -25.1875 490.1875 C-30.1375 490.1875 -35.0875 490.1875 -40.1875 490.1875 C-39.5275 488.8675 -38.8675 487.5475 -38.1875 486.1875 C-38.87972656 486.04763672 -39.57195312 485.90777344 -40.28515625 485.76367188 C-80.82897739 477.4572632 -118.85946954 462.57014555 -151.1875 436.1875 C-152.34234222 435.26158691 -153.49729232 434.33580835 -154.65234375 433.41015625 C-160.8166 428.40888378 -160.8166 428.40888378 -163.1875 426.1875 C-163.1875 425.5275 -163.1875 424.8675 -163.1875 424.1875 C-164.0228125 423.8471875 -164.0228125 423.8471875 -164.875 423.5 C-167.82937072 421.82319499 -169.81852343 419.61425648 -172.1875 417.1875 C-173.033125 416.5275 -173.87875 415.8675 -174.75 415.1875 C-177.33334335 413.06783366 -179.25433565 410.90824983 -181.1875 408.1875 C-181.1875 407.5275 -181.1875 406.8675 -181.1875 406.1875 C-182.1775 405.8575 -183.1675 405.5275 -184.1875 405.1875 C-185.59448242 403.68798828 -185.59448242 403.68798828 -187.04296875 401.7578125 C-187.57921875 401.05011719 -188.11546875 400.34242188 -188.66796875 399.61328125 C-189.23128906 398.85402344 -189.79460937 398.09476562 -190.375 397.3125 C-190.95507812 396.54035156 -191.53515625 395.76820313 -192.1328125 394.97265625 C-193.29304724 393.42481525 -194.44984642 391.87439247 -195.60302734 390.32128906 C-196.94220542 388.51783508 -198.29070595 386.7221407 -199.64453125 384.9296875 C-203.0316262 380.38333825 -206.11565348 375.84414276 -208.7734375 370.8359375 C-211.0612335 366.55105992 -213.4869232 362.34315864 -215.89038086 358.12231445 C-220.82305391 349.39577668 -224.71072241 340.59587087 -228.1875 331.1875 C-228.61289063 330.04667969 -229.03828125 328.90585937 -229.4765625 327.73046875 C-237.30865929 306.32433917 -240.84850159 284.63709893 -244.1875 262.1875 C-245.1775 263.1775 -246.1675 264.1675 -247.1875 265.1875 C-247.1875 255.6175 -247.1875 246.0475 -247.1875 236.1875 C-246.5275 236.1875 -245.8675 236.1875 -245.1875 236.1875 C-243.72858281 233.26966563 -243.69700043 230.42953818 -243.35546875 227.1875 C-243.19766442 225.73586007 -243.0392761 224.28428353 -242.88037109 222.83276367 C-242.79809265 222.07305267 -242.71581421 221.31334167 -242.63104248 220.53060913 C-239.23442703 189.4473269 -239.23442703 189.4473269 -234.1875 177.1875 C-233.89875 175.99125 -233.61 174.795 -233.3125 173.5625 C-226.53468745 145.67516439 -211.10843649 117.38612839 -193.1875 95.1875 C-192.40246094 94.21167969 -191.61742187 93.23585938 -190.80859375 92.23046875 C-188.61836948 89.53508567 -186.40451507 86.86083274 -184.1875 84.1875 C-183.65769531 83.52105469 -183.12789063 82.85460937 -182.58203125 82.16796875 C-181.49386729 80.80537047 -180.34818704 79.48887638 -179.1875 78.1875 C-178.5275 78.1875 -177.8675 78.1875 -177.1875 78.1875 C-176.7853125 77.2903125 -176.7853125 77.2903125 -176.375 76.375 C-175.18832594 74.18902146 -174.09150887 72.77417406 -172.1875 71.1875 C-171.5275 71.1875 -170.8675 71.1875 -170.1875 71.1875 C-169.1975 69.2075 -169.1975 69.2075 -168.1875 67.1875 C-167.5275 67.1875 -166.8675 67.1875 -166.1875 67.1875 C-165.6925 65.7025 -165.6925 65.7025 -165.1875 64.1875 C-163.140625 62.27734375 -163.140625 62.27734375 -160.4375 60.125 C-159.44363281 59.33222656 -158.44976562 58.53945312 -157.42578125 57.72265625 C-156.34712565 56.87661964 -155.26768356 56.03158491 -154.1875 55.1875 C-153.64915527 54.76452637 -153.11081055 54.34155273 -152.55615234 53.90576172 C-132.42201115 38.11651419 -111.27490862 25.0664353 -87.1875 16.1875 C-85.04148382 15.33379283 -82.8956513 14.47962382 -80.75 13.625 C-66.28477182 8.07883679 -51.2770243 4.88924694 -36 2.5625 C-35.19288574 2.43931396 -34.38577148 2.31612793 -33.55419922 2.18920898 C-22.35778844 0.54774937 -11.31535254 -0.01689215 0 0 Z M-48.7734375 141.1171875 C-52.26767373 146.23305822 -52.54027006 151.0652348 -51.65625 156.9921875 C-49.70936883 166.11008097 -44.21685348 171.60006518 -37.1875 177.1875 C-36.383125 178.156875 -35.57875 179.12625 -34.75 180.125 C-32.28110369 183.2606044 -32.28110369 183.2606044 -29.1875 185.6875 C-26.08303597 188.27455336 -23.76215276 191.08471334 -21.1875 194.1875 C-20.3625 194.8475 -19.5375 195.5075 -18.6875 196.1875 C-16.1875 198.1875 -16.1875 198.1875 -13.75 201.125 C-11.28110369 204.2606044 -11.28110369 204.2606044 -8.1875 206.6875 C-5.08303597 209.27455336 -2.76215276 212.08471334 -0.1875 215.1875 C0.6375 215.8475 1.4625 216.5075 2.3125 217.1875 C4.8125 219.1875 4.8125 219.1875 7.25 222.125 C9.71889631 225.2606044 9.71889631 225.2606044 12.8125 227.6875 C15.91955716 230.2767143 18.22863738 233.08686486 20.8125 236.1875 C21.87600368 237.12710034 22.95949973 238.04459502 24.0625 238.9375 C26.8125 241.1875 26.8125 241.1875 27.8125 243.1875 C28.4725 243.1875 29.1325 243.1875 29.8125 243.1875 C25.27791983 248.48541913 20.59033808 253.54826264 15.63964844 258.45800781 C14.62121857 259.47424728 14.62121857 259.47424728 13.58221436 260.51101685 C12.12272088 261.96673406 10.66207443 263.42129607 9.20037079 264.87479401 C6.88623589 267.17606601 4.57532652 269.48053452 2.26519775 271.78582764 C-2.63288975 276.67254331 -7.53491127 281.55530074 -12.4375 286.4375 C-18.13505267 292.11143097 -23.83096987 297.78698392 -29.52269745 303.46675873 C-31.79794508 305.73553097 -34.07618542 308.00126851 -36.35455322 310.26690674 C-37.74725853 311.65598004 -39.13982392 313.04519363 -40.53222656 314.43457031 C-41.16499512 315.06217255 -41.79776367 315.68977478 -42.44970703 316.33639526 C-48.19206243 322.0780563 -52.17698176 326.97122155 -52.19140625 335.49609375 C-51.4662995 344.27136521 -47.76152406 349.30650989 -41.125 354.9375 C-36.38198536 357.99750945 -30.63011899 357.61918518 -25.1875 357.1875 C-14.72136463 354.38407088 -6.77224621 343.92200152 0.67114258 336.47412109 C1.49362488 335.65499741 2.31610718 334.83587372 3.16351318 333.9919281 C5.84730305 331.31754047 8.52739843 328.63948988 11.20703125 325.9609375 C12.61059052 324.55978136 14.01415086 323.15862629 15.41783446 321.7575947 C19.81700893 317.3665115 24.21338143 312.97263654 28.6081543 308.57714844 C33.1252604 304.05943988 37.64793689 299.54736108 42.17321092 295.03783548 C46.07938077 291.1447703 49.98165583 287.24782972 53.88095969 283.34788764 C56.20094511 281.0276485 58.52288359 278.70942721 60.84784889 276.39417648 C63.43695997 273.81488135 66.01963655 271.22930509 68.60083008 268.64208984 C69.36195602 267.8865834 70.12308197 267.13107697 70.90727234 266.35267639 C77.43101807 259.79026077 82.88971811 254.17132414 83.125 244.5 C83.06357556 238.84895154 82.26425227 234.72257145 78.8125 230.1875 C76.87124656 228.45276288 74.86977132 226.7829349 72.8125 225.1875 C71.14182867 223.19084402 69.47497014 221.19098966 67.8125 219.1875 C66.9875 218.5275 66.1625 217.8675 65.3125 217.1875 C62.8125 215.1875 62.8125 215.1875 60.375 212.25 C57.90610369 209.1143956 57.90610369 209.1143956 54.8125 206.6875 C51.70803597 204.10044664 49.38715276 201.29028666 46.8125 198.1875 C45.9875 197.5275 45.1625 196.8675 44.3125 196.1875 C41.8125 194.1875 41.8125 194.1875 39.375 191.25 C37.46289521 188.96480159 35.89253169 187.32723427 33.625 185.5 C30.8125 183.1875 30.8125 183.1875 28.8125 180.1875 C28.1525 180.1875 27.4925 180.1875 26.8125 180.1875 C26.4825 179.1975 26.1525 178.2075 25.8125 177.1875 C23.93741838 174.9789234 23.93741838 174.9789234 21.8125 173.1875 C21.1525 173.1875 20.4925 173.1875 19.8125 173.1875 C19.4825 172.1975 19.1525 171.2075 18.8125 170.1875 C16.93741838 167.9789234 16.93741838 167.9789234 14.8125 166.1875 C14.1525 166.1875 13.4925 166.1875 12.8125 166.1875 C12.4825 165.1975 12.1525 164.2075 11.8125 163.1875 C9.93741838 160.9789234 9.93741838 160.9789234 7.8125 159.1875 C7.1525 159.1875 6.4925 159.1875 5.8125 159.1875 C5.3175 157.7025 5.3175 157.7025 4.8125 156.1875 C2.93741838 153.9789234 2.93741838 153.9789234 0.8125 152.1875 C0.1525 152.1875 -0.5075 152.1875 -1.1875 152.1875 C-1.8475 150.8675 -2.5075 149.5475 -3.1875 148.1875 C-3.8475 148.1875 -4.5075 148.1875 -5.1875 148.1875 C-5.6825 146.7025 -5.6825 146.7025 -6.1875 145.1875 C-6.8475 145.1875 -7.5075 145.1875 -8.1875 145.1875 C-8.455625 144.589375 -8.72375 143.99125 -9 143.375 C-10.18667406 141.18902146 -11.28349113 139.77417406 -13.1875 138.1875 C-13.8475 138.1875 -14.5075 138.1875 -15.1875 138.1875 C-15.6825 136.7025 -15.6825 136.7025 -16.1875 135.1875 C-27.93037615 127.18950463 -40.32495315 130.66267033 -48.7734375 141.1171875 Z " fill="#FDFEFE" transform="translate(247.1875,9.8125)"/>
<path d="M0 0 C0 0.99 0 1.98 0 3 C1.98 3.66 3.96 4.32 6 5 C6.495 7.97 6.495 7.97 7 11 C-6.2 11 -19.4 11 -33 11 C-31 9 -31 9 -28 8 C-28.99 7.34 -29.98 6.68 -31 6 C-4.26213592 0 -4.26213592 0 0 0 Z " fill="#BCB781" transform="translate(312,489)"/>
<path d="M0 0 C0.66 0.99 1.32 1.98 2 3 C1.34 3 0.68 3 0 3 C0 3.66 0 4.32 0 5 C-3.0605807 8.36663877 -6.4685245 11.30067715 -9.875 14.3125 C-13.71131506 17.73330912 -17.09775112 21.29451485 -20.41015625 25.21484375 C-23.79964423 29.02073075 -27.89692122 32.00159628 -32 35 C-32.66 34.67 -33.32 34.34 -34 34 C-22.78 22.78 -11.56 11.56 0 0 Z " fill="#C8D6D6" transform="translate(322,271)"/>
<path d="M0 0 C0.495 1.485 0.495 1.485 1 3 C0.44570313 3.45890625 -0.10859375 3.9178125 -0.6796875 4.390625 C-1.40414062 5.00421875 -2.12859375 5.6178125 -2.875 6.25 C-3.59429687 6.85328125 -4.31359375 7.4565625 -5.0546875 8.078125 C-7.0051676 10.00510534 -7.80038895 11.57688128 -9 14 C-10.76953125 15.74609375 -10.76953125 15.74609375 -12.8125 17.4375 C-16.75338163 20.77699036 -20.38861128 24.29782882 -23.94140625 28.05078125 C-24.64136719 28.77652344 -25.34132812 29.50226563 -26.0625 30.25 C-26.71347656 30.93578125 -27.36445313 31.6215625 -28.03515625 32.328125 C-30.11875875 34.10105118 -31.38051401 34.44809893 -34 35 C-29.97251947 30.16701194 -25.75620587 25.61889996 -21.2890625 21.19140625 C-20.36956314 20.27402931 -20.36956314 20.27402931 -19.43148804 19.33811951 C-17.49835436 17.41052441 -15.56175013 15.48646072 -13.625 13.5625 C-12.30315301 12.24567596 -10.98153628 10.92862074 -9.66015625 9.61132812 C-6.44275701 6.40487627 -3.22224319 3.20158371 0 0 Z " fill="#BFD2D7" transform="translate(269,324)"/>
<path d="M0 0 C0 1.98 0 3.96 0 6 C-4.29 6 -8.58 6 -13 6 C-11 4 -11 4 -8 3 C-8.99 2.34 -9.98 1.68 -11 1 C-7.27569643 0.30710631 -3.78916254 -0.11144596 0 0 Z " fill="#C5BF84" transform="translate(292,494)"/>
<path d="M0 0 C0 3.59857954 -0.95830515 5.09451118 -3 8 C-3.66 8 -4.32 8 -5 8 C-5.33 8.99 -5.66 9.98 -6 11 C-7.96185416 12.71140469 -9.96302383 14.37873325 -12 16 C-12.66 16.66 -13.32 17.32 -14 18 C-14.99 17.67 -15.98 17.34 -17 17 C-11.39 11.39 -5.78 5.78 0 0 Z " fill="#C7D7DA" transform="translate(287,306)"/>
<path d="M0 0 C1.9609375 0.015625 1.9609375 0.015625 4.375 0.25 C5.16648438 0.31703125 5.95796875 0.3840625 6.7734375 0.453125 C9.36386041 1.08936922 10.35293036 1.93850639 12 4 C12 4.33 12 4.66 12 5 C7.05 5 2.1 5 -3 5 C-1 1 -1 1 0 0 Z " fill="#DAD398" transform="translate(210,495)"/>
<path d="M0 0 C0.66 0.33 1.32 0.66 2 1 C-3.01896102 6.51128418 -8.01984949 11.13634851 -15 14 C-15.99 14 -16.98 14 -18 14 C-16.12812601 12.41284471 -14.2526762 10.83026649 -12.375 9.25 C-11.59189453 8.58484375 -11.59189453 8.58484375 -10.79296875 7.90625 C-7.33636676 5.00441129 -3.79729899 2.44030626 0 0 Z " fill="#B7C6D4" transform="translate(110,52)"/>
<path d="M0 0 C0 0.99 0 1.98 0 3 C0.99 3.66 1.98 4.32 3 5 C-3.27 4.67 -9.54 4.34 -16 4 C-13.04397962 2.02931975 -11.41015799 1.51440462 -8 0.875 C-7.13375 0.70742188 -6.2675 0.53984375 -5.375 0.3671875 C-3 0 -3 0 0 0 Z " fill="#DAD7B3" transform="translate(312,489)"/>
<path d="M0 0 C3.57469625 3.57469625 3.96917283 8.02894421 4.125 12.9375 C4.08375 13.948125 4.0425 14.95875 4 16 C0.48766061 10.73149092 -0.25153688 6.28842188 0 0 Z " fill="#C6E1E3" transform="translate(10,306)"/>
<path d="M0 0 C0.99 0.66 1.98 1.32 3 2 C-0.3 4.31 -3.6 6.62 -7 9 C-7.66 8.34 -8.32 7.68 -9 7 C-8.01 7 -7.02 7 -6 7 C-5.7525 6.401875 -5.505 5.80375 -5.25 5.1875 C-3.83629988 2.71352479 -2.34944617 1.56629745 0 0 Z " fill="#CCDCDE" transform="translate(391,448)"/>
<path d="M0 0 C3.7890625 0.7265625 3.7890625 0.7265625 5.6875 3.1875 C7.07652628 6.16398488 7.62204468 8.74958422 8 12 C4.02502456 8.59287819 2.13206212 4.67239145 0 0 Z " fill="#CBDDE0" transform="translate(34,372)"/>
<path d="M0 0 C5.44567686 1.02862785 10.11817117 2.24614784 15 5 C15 5.33 15 5.66 15 6 C11.04170312 6.22822613 8.32148459 5.55050009 4.6875 4 C3.80449219 3.62875 2.92148437 3.2575 2.01171875 2.875 C1.34785156 2.58625 0.68398438 2.2975 0 2 C0 1.34 0 0.68 0 0 Z " fill="#B4BFD6" transform="translate(322,22)"/>
<path d="M0 0 C0.33 0 0.66 0 1 0 C1.144375 1.11375 1.28875 2.2275 1.4375 3.375 C1.78372035 6.82142047 1.78372035 6.82142047 3 9 C1.75 12.0625 1.75 12.0625 0 15 C-0.99 15.33 -1.98 15.66 -3 16 C-2.5359375 14.824375 -2.5359375 14.824375 -2.0625 13.625 C-0.73664193 9.10148422 -0.35188915 4.68568186 0 0 Z " fill="#B3CBCC" transform="translate(330,250)"/>
<path d="M0 0 C0 0.66 0 1.32 0 2 C-0.66 2 -1.32 2 -2 2 C-2 2.66 -2 3.32 -2 4 C-4.25 5.75 -4.25 5.75 -7 7 C-9.171875 6.078125 -9.171875 6.078125 -11 5 C-9.54462432 4.16151196 -8.08559627 3.32936066 -6.625 2.5 C-5.81289062 2.0359375 -5.00078125 1.571875 -4.1640625 1.09375 C-2 0 -2 0 0 0 Z " fill="#C3CFDA" transform="translate(130,41)"/>
<path d="M0 0 C0.33 1.32 0.66 2.64 1 4 C-2.13498292 5.85776765 -4.37471432 6.20140476 -8 6 C-6 4 -6 4 -3 3 C-3.99 2.34 -4.98 1.68 -6 1 C-4.02 0.67 -2.04 0.34 0 0 Z " fill="#D7D09B" transform="translate(287,494)"/>
<path d="M0 0 C0.33 0.99 0.66 1.98 1 3 C-1.64 5.31 -4.28 7.62 -7 10 C-7.66 9.67 -8.32 9.34 -9 9 C-6.03 6.03 -3.06 3.06 0 0 Z " fill="#B7CBCE" transform="translate(269,324)"/>
<path d="M0 0 C-0.66 0 -1.32 0 -2 0 C-2 0.66 -2 1.32 -2 2 C-5.85756507 4.15305957 -8.55129785 5.39253254 -13 5 C-9.76220634 1.00037254 -4.97776602 -1.65925534 0 0 Z " fill="#B4C0CD" transform="translate(157,29)"/>
<path d="M0 0 C1.98 0.99 3.96 1.98 6 3 C6 3.99 6 4.98 6 6 C6.66 6 7.32 6 8 6 C8.66 7.32 9.32 8.64 10 10 C9.01 9.67 8.02 9.34 7 9 C7 8.34 7 7.68 7 7 C6.01 6.67 5.02 6.34 4 6 C1.8125 4.0625 1.8125 4.0625 0 2 C0 1.34 0 0.68 0 0 Z " fill="#A2B0C2" transform="translate(284,198)"/>
<path d="M0 0 C0.33 0.99 0.66 1.98 1 3 C-0.65 4.65 -2.3 6.3 -4 8 C-4.99 7.67 -5.98 7.34 -7 7 C-4.69 4.69 -2.38 2.38 0 0 Z " fill="#BCCFD0" transform="translate(277,316)"/>
<path d="M0 0 C0.99 0 1.98 0 3 0 C3 0.66 3 1.32 3 2 C3.99 2.33 4.98 2.66 6 3 C6.33 3.99 6.66 4.98 7 6 C7.66 6.33 8.32 6.66 9 7 C8.67 7.66 8.34 8.32 8 9 C1.42857143 3.85714286 1.42857143 3.85714286 0 0 Z " fill="#AAB9E4" transform="translate(244,158)"/>
<path d="M0 0 C0.53625 0.226875 1.0725 0.45375 1.625 0.6875 C-0.94589417 2.79930592 -3.00560567 4.35056057 -6.375 4.6875 C-7.035 4.0275 -7.695 3.3675 -8.375 2.6875 C-2.95961538 -0.38942308 -2.95961538 -0.38942308 0 0 Z " fill="#BBC6D2" transform="translate(166.375,24.3125)"/>
<path d="M0 0 C0.66 0 1.32 0 2 0 C2 0.99 2 1.98 2 3 C2.66 3.33 3.32 3.66 4 4 C4.625 6.0625 4.625 6.0625 5 8 C4.01 8.495 4.01 8.495 3 9 C2.01 6.03 1.02 3.06 0 0 Z " fill="#C5DBDE" transform="translate(17,334)"/>
<path d="M0 0 C1.32 0.33 2.64 0.66 4 1 C0.535 3.97 0.535 3.97 -3 7 C-3 6.01 -3 5.02 -3 4 C-2.34 4 -1.68 4 -1 4 C-0.67 2.68 -0.34 1.36 0 0 Z " fill="#C9D8DA" transform="translate(221,306)"/>
<path d="M0 0 C0.33 0.66 0.66 1.32 1 2 C1.66 2.33 2.32 2.66 3 3 C2.67 3.66 2.34 4.32 2 5 C0.35 5 -1.3 5 -3 5 C-1.125 1.125 -1.125 1.125 0 0 Z " fill="#B5C198" transform="translate(210,495)"/>
<path d="M0 0 C1.98 0.99 3.96 1.98 6 3 C6 3.66 6 4.32 6 5 C3.03 4.01 0.06 3.02 -3 2 C-2.01 1.34 -1.02 0.68 0 0 Z " fill="#C7D8DA" transform="translate(147,474)"/>
<path d="M0 0 C0.33 0.66 0.66 1.32 1 2 C3.01669827 3.13350534 3.01669827 3.13350534 5 4 C4.34 4.66 3.68 5.32 3 6 C1.35 4.35 -0.3 2.7 -2 1 C-1.34 0.67 -0.68 0.34 0 0 Z " fill="#C1E1E4" transform="translate(97,443)"/>
<path d="M0 0 C1.875 0.25 1.875 0.25 4 1 C5.25 3.0625 5.25 3.0625 6 5 C5.34 5.66 4.68 6.32 4 7 C2.02 3.535 2.02 3.535 0 0 Z " fill="#C0D8DD" transform="translate(42,386)"/>
<path d="M0 0 C0.33 0.99 0.66 1.98 1 3 C-1.97 5.475 -1.97 5.475 -5 8 C-5.66 7.67 -6.32 7.34 -7 7 C-5.37660195 5.29115995 -3.70680947 3.62553283 -2 2 C-1.34 2 -0.68 2 0 2 C0 1.34 0 0.68 0 0 Z " fill="#97B0B9" transform="translate(77,79)"/>
</svg>
