<?xml version="1.0" encoding="UTF-8"?>
<svg version="1.1" xmlns="http://www.w3.org/2000/svg" width="233" height="67">
<path d="M0 0 C0.79792969 -0.00128906 1.59585938 -0.00257812 2.41796875 -0.00390625 C3.24683594 -0.00003906 4.07570313 0.00382812 4.9296875 0.0078125 C6.18458984 0.00201172 6.18458984 0.00201172 7.46484375 -0.00390625 C13.67803876 0.00616376 13.67803876 0.00616376 14.8046875 1.1328125 C14.98604036 4.0433772 15.08297265 6.90748831 15.1171875 9.8203125 C15.14619141 10.62404297 15.17519531 11.42777344 15.20507812 12.25585938 C15.26362316 17.76359611 14.39836721 20.73553715 10.8046875 25.1328125 C9.99257812 26.20208984 9.99257812 26.20208984 9.1640625 27.29296875 C4.81221985 32.43701576 0.30712499 37.29324907 -6.5625 38.57421875 C-10.58189783 38.77848323 -12.52302956 38.65752114 -15.7578125 36.1328125 C-16.2321875 35.4728125 -16.7065625 34.8128125 -17.1953125 34.1328125 C-15.22415237 30.92161346 -13.24425927 28.37526367 -10.1953125 26.1328125 C-5.7821912 25.43492355 -1.62522935 25.6531824 2.8046875 26.1328125 C2.9815121 21.62378523 3.09574301 18.0900902 0.8046875 14.1328125 C-2.03907565 12.87748447 -2.03907565 12.87748447 -5.3203125 12.3203125 C-6.41601562 12.08699219 -7.51171875 11.85367188 -8.640625 11.61328125 C-9.90519531 11.37544922 -9.90519531 11.37544922 -11.1953125 11.1328125 C-11.08832031 11.85726562 -10.98132812 12.58171875 -10.87109375 13.328125 C-9.63813544 23.27133718 -9.63813544 23.27133718 -13.1953125 28.1328125 C-15.8828125 30.5078125 -15.8828125 30.5078125 -18.1953125 32.1328125 C-22.0703125 30.3828125 -22.0703125 30.3828125 -23.1953125 28.1328125 C-23.63967882 20.78688169 -21.51135215 16.33045533 -16.88671875 10.75 C-15.1953125 9.1328125 -15.1953125 9.1328125 -13.1953125 9.1328125 C-12.9478125 8.5553125 -12.7003125 7.9778125 -12.4453125 7.3828125 C-9.4616343 2.01219173 -6.05230786 0.00932559 0 0 Z " fill="#6AD8A2" transform="translate(33.1953125,22.8671875)"/>
<path d="M0 0 C0 1.98 0 3.96 0 6 C-2.31 6.33 -4.62 6.66 -7 7 C-7 8.65 -7 10.3 -7 12 C-3.7 12 -0.4 12 3 12 C3.83790789 13.78953185 4.67019396 15.58169695 5.5 17.375 C5.9640625 18.37273438 6.428125 19.37046875 6.90625 20.3984375 C8 23 8 23 8 25 C8.66 25 9.32 25 10 25 C10.0825 24.34 10.165 23.68 10.25 23 C11.24759791 19.00960837 13.07166683 15.61450357 15 12 C17.64 12 20.28 12 23 12 C21.63883147 16.27905035 20.03803917 20.35446367 18.21484375 24.45703125 C17.41916992 26.24850586 17.41916992 26.24850586 16.60742188 28.07617188 C16.33341553 28.68904053 16.05940918 29.30190918 15.77709961 29.93334961 C14.93280604 31.82300578 14.09405766 33.71505533 13.25585938 35.60742188 C9.12939549 44.87060451 9.12939549 44.87060451 8 46 C6.33382885 46.04063832 4.66611905 46.042721 3 46 C2.67 46.66 2.34 47.32 2 48 C2 47.34 2 46.68 2 46 C1.34 46 0.68 46 0 46 C2 40 2 40 3.26953125 37.24609375 C4.24218954 32.92374596 2.85247243 30.39689537 0.8125 26.6875 C0.49474609 26.05521484 0.17699219 25.42292969 -0.15039062 24.77148438 C-2.13478551 20.86143839 -2.13478551 20.86143839 -6 19 C-6.33 24.61 -6.66 30.22 -7 36 C-9.64 36 -12.28 36 -15 36 C-15.33 30.39 -15.66 24.78 -16 19 C-17.32 18.67 -18.64 18.34 -20 18 C-20 16.02 -20 14.04 -20 12 C-18.35 12 -16.7 12 -15 12 C-14.9175 10.7625 -14.835 9.525 -14.75 8.25 C-14.37084242 5.47279384 -13.98437497 3.97282604 -12.5625 1.5 C-8.55661878 -0.84490608 -4.53150506 -0.31132478 0 0 Z " fill="#F8FDFD" transform="translate(196,19)"/>
<path d="M0 0 C2.31 0 4.62 0 7 0 C7 2.31 7 4.62 7 7 C9.31 7 11.62 7 14 7 C14 8.98 14 10.96 14 13 C9.25 14.125 9.25 14.125 7 13 C7.165 13.53625 7.33 14.0725 7.5 14.625 C8.09660212 17.45886009 8.0656368 20.1119806 8 23 C9.98 23.66 11.96 24.32 14 25 C14 26.98 14 28.96 14 31 C11.56539024 32.21730488 10.25609714 32.04691814 7.5625 31.8125 C6.78003906 31.75707031 5.99757812 31.70164062 5.19140625 31.64453125 C3 31 3 31 1.26171875 29.33203125 C-0.30725718 26.43209741 -0.54033968 24.15699034 -0.75 20.875 C-0.82734375 19.82054688 -0.9046875 18.76609375 -0.984375 17.6796875 C-1 15 -1 15 0 13 C-0.61875 13.185625 -1.2375 13.37125 -1.875 13.5625 C-4 14 -4 14 -6 13 C-6 18.94 -6 24.88 -6 31 C-8.64 31 -11.28 31 -14 31 C-14.06058594 29.94039062 -14.12117188 28.88078125 -14.18359375 27.7890625 C-14.26800127 26.40102779 -14.35264917 25.01300768 -14.4375 23.625 C-14.47681641 22.92632812 -14.51613281 22.22765625 -14.55664062 21.5078125 C-14.74280134 17.62639508 -14.74280134 17.62639508 -16 14 C-17.65 14 -19.3 14 -21 14 C-21.33 19.61 -21.66 25.22 -22 31 C-24.64 31 -27.28 31 -30 31 C-30 23.08 -30 15.16 -30 7 C-27.03 7 -24.06 7 -21 7 C-19.783125 6.773125 -18.56625 6.54625 -17.3125 6.3125 C-13.26787038 5.93093117 -11.37896364 6.82780909 -8 9 C-7.67 9.66 -7.34 10.32 -7 11 C-6.34 9.68 -5.68 8.36 -5 7 C-3.35 7 -1.7 7 0 7 C0 4.69 0 2.38 0 0 Z " fill="#F8FDFD" transform="translate(140,24)"/>
<path d="M0 0 C0.99 0.66 1.98 1.32 3 2 C3.680625 1.484375 4.36125 0.96875 5.0625 0.4375 C8.92635729 -1.45332378 10.90081728 -1.19248952 15 0 C17.46089296 2.18114669 18.83844626 3.88270079 19.31665039 7.18994141 C19.39357255 9.74233537 19.34894049 12.26097706 19.25 14.8125 C19.23195312 15.69615234 19.21390625 16.57980469 19.1953125 17.49023438 C19.14838513 19.66062543 19.07664731 21.83045519 19 24 C16.69 24 14.38 24 12 24 C11.93941406 22.94039062 11.87882812 21.88078125 11.81640625 20.7890625 C11.73199873 19.40102779 11.64735083 18.01300768 11.5625 16.625 C11.52318359 15.92632812 11.48386719 15.22765625 11.44335938 14.5078125 C11.25719866 10.62639508 11.25719866 10.62639508 10 7 C8.01508358 7.26676204 8.01508358 7.26676204 6 8 C4.89485234 11.31544299 4.67892369 14.20410111 4.4375 17.6875 C4.35371094 18.86699219 4.26992187 20.04648437 4.18359375 21.26171875 C4.09271484 22.61716797 4.09271484 22.61716797 4 24 C1.69 24 -0.62 24 -3 24 C-3.06058594 23.02417969 -3.12117188 22.04835938 -3.18359375 21.04296875 C-3.30927734 19.13451172 -3.30927734 19.13451172 -3.4375 17.1875 C-3.51871094 15.92292969 -3.59992188 14.65835938 -3.68359375 13.35546875 C-3.87184547 10.00818107 -3.87184547 10.00818107 -5 7 C-6.97536745 7.34786708 -6.97536745 7.34786708 -9 8 C-10.4807848 10.9615696 -10.35314037 13.83506295 -10.5625 17.125 C-10.64628906 18.40632813 -10.73007813 19.68765625 -10.81640625 21.0078125 C-10.87699219 21.99523437 -10.93757813 22.98265625 -11 24 C-13.3260857 24.38063221 -15.66055264 24.71269945 -18 25 C-19 24 -19 24 -19.02172852 21.68334961 C-18.97459717 20.68311768 -18.92746582 19.68288574 -18.87890625 18.65234375 C-18.83056641 17.57275391 -18.78222656 16.49316406 -18.73242188 15.38085938 C-18.67634766 14.24455078 -18.62027344 13.10824219 -18.5625 11.9375 C-18.51029297 10.79732422 -18.45808594 9.65714844 -18.40429688 8.48242188 C-18.27415067 5.65469977 -18.13917121 2.82729 -18 0 C-17.07767578 0.01740234 -17.07767578 0.01740234 -16.13671875 0.03515625 C-14.92435547 0.04869141 -14.92435547 0.04869141 -13.6875 0.0625 C-12.88699219 0.07410156 -12.08648437 0.08570312 -11.26171875 0.09765625 C-1.42687277 -0.32699168 -1.42687277 -0.32699168 0 0 Z " fill="#F6FCFD" transform="translate(76,31)"/>
<path d="M0 0 C2.64 0 5.28 0 8 0 C8 11.88 8 23.76 8 36 C5.36 36 2.72 36 0 36 C0 24.12 0 12.24 0 0 Z " fill="#FAFDFD" transform="translate(156,19)"/>
<path d="M0 0 C0.99 0.33 1.98 0.66 3 1 C2.21625 1.556875 1.4325 2.11375 0.625 2.6875 C-2.20362909 5.17938753 -2.94462489 6.44776182 -4 10 C-3.91844438 12.70536488 -3.91844438 12.70536488 -3.4375 15.4375 C-2.90288462 20.22971502 -3.05456297 22.97456939 -6 27 C-8.6875 29.375 -8.6875 29.375 -11 31 C-14.875 29.25 -14.875 29.25 -16 27 C-16.44436632 19.65406919 -14.31603965 15.19764283 -9.69140625 9.6171875 C-8 8 -8 8 -6 8 C-5.7525 7.4225 -5.505 6.845 -5.25 6.25 C-3.83316683 3.6997003 -2.12372463 1.98214299 0 0 Z " fill="#40846A" transform="translate(26,24)"/>
<path d="M0 0 C0.33 0.66 0.66 1.32 1 2 C1.99 2.33 2.98 2.66 4 3 C0.44980973 8.1773608 -4.08425572 12.25414395 -10.37890625 13.453125 C-14.39303625 13.6382908 -16.33108639 13.52207891 -19.5625 11 C-20.2740625 10.01 -20.2740625 10.01 -21 9 C-19.02923094 5.78943804 -17.04905998 3.24123149 -14 1 C-10.4438873 0.46929928 -7.27595041 0.55132486 -3.6953125 0.81640625 C-2.80585937 0.87699219 -1.91640625 0.93757813 -1 1 C-0.67 0.67 -0.34 0.34 0 0 Z " fill="#3E8762" transform="translate(37,48)"/>
<path d="M0 0 C2.64 0 5.28 0 8 0 C8 7.92 8 15.84 8 24 C5.36 24 2.72 24 0 24 C0 16.08 0 8.16 0 0 Z " fill="#F6FDFE" transform="translate(99,31)"/>
<path d="M0 0 C2.64 0 5.28 0 8 0 C8 7.92 8 15.84 8 24 C5.36 24 2.72 24 0 24 C0 16.08 0 8.16 0 0 Z " fill="#F6FDFE" transform="translate(167,31)"/>
<path d="M0 0 C0.66 0.33 1.32 0.66 2 1 C2.484375 2.92578125 2.484375 2.92578125 2.75 5.3125 C2.89695312 6.48232422 2.89695312 6.48232422 3.046875 7.67578125 C2.99392264 10.30133568 2.32990442 11.76473757 1 14 C0.01 14 -0.98 14 -2 14 C-2 14.66 -2 15.32 -2 16 C-3.65 16.33 -5.3 16.66 -7 17 C-9.19130435 11.76521739 -9.19130435 11.76521739 -8.3125 8.25 C-7 6 -7 6 -4 4 C-3.67 5.32 -3.34 6.64 -3 8 C-1.0549 5.08235 -0.54723683 3.37462715 0 0 Z " fill="#3E8B61" transform="translate(20,35)"/>
<path d="M0 0 C3 0.125 3 0.125 4 1.125 C4.04080783 3.12458364 4.04254356 5.12545254 4 7.125 C1.75 8.3125 1.75 8.3125 -1 9.125 C-3.3125 7.75 -3.3125 7.75 -5 6.125 C-3.93003229 0.16375135 -3.93003229 0.16375135 0 0 Z " fill="#F4FDFD" transform="translate(103,18.875)"/>
<path d="M0 0 C2.5 0.25 2.5 0.25 4.5 2.25 C4.4375 4.75 4.4375 4.75 3.5 7.25 C1.125 8.6875 1.125 8.6875 -1.5 9.25 C-2.49 8.59 -3.48 7.93 -4.5 7.25 C-4.8125 4.75 -4.8125 4.75 -4.5 2.25 C-2.5 0.25 -2.5 0.25 0 0 Z " fill="#F4FCFE" transform="translate(171.5,18.75)"/>
<path d="M0 0 C0 1.98 0 3.96 0 6 C-2.31 6.33 -4.62 6.66 -7 7 C-7.33 8.32 -7.66 9.64 -8 11 C-8.33 9.68 -8.66 8.36 -9 7 C-8.030625 6.566875 -7.06125 6.13375 -6.0625 5.6875 C-2.72268235 4.2985139 -2.72268235 4.2985139 -2 1 C-5.3634269 1.02649222 -5.3634269 1.02649222 -9 2 C-11.98757074 5.45929244 -13.46627334 8.46332336 -14 13 C-15.32 13 -16.64 13 -18 13 C-18.33 13.99 -18.66 14.98 -19 16 C-19 14.68 -19 13.36 -19 12 C-17.68 12 -16.36 12 -15 12 C-14.9175 10.7625 -14.835 9.525 -14.75 8.25 C-14.37084242 5.47279384 -13.98437497 3.97282604 -12.5625 1.5 C-8.55661878 -0.84490608 -4.53150506 -0.31132478 0 0 Z " fill="#EDFBFE" transform="translate(196,19)"/>
<path d="M0 0 C0.99 0.33 1.98 0.66 3 1 C2.21625 1.556875 1.4325 2.11375 0.625 2.6875 C-2.16727774 5.14736372 -2.89729169 6.52222763 -4 10 C-5 12.5 -5 12.5 -6 15 C-8.475 14.01 -8.475 14.01 -11 13 C-9.625 10.5 -9.625 10.5 -8 8 C-7.34 8 -6.68 8 -6 8 C-5.7525 7.4225 -5.505 6.845 -5.25 6.25 C-3.83316683 3.6997003 -2.12372463 1.98214299 0 0 Z " fill="#2F7D5F" transform="translate(26,24)"/>
<path d="M0 0 C0.66 1.32 1.32 2.64 2 4 C2.99 3.34 3.98 2.68 5 2 C5.66 3.32 6.32 4.64 7 6 C6.34 6.66 5.68 7.32 5 8 C3.68 8 2.36 8 1 8 C-0.35439668 5.29120665 -0.06501451 2.99066732 0 0 Z " fill="#64CB9B" transform="translate(37,42)"/>
<path d="M0 0 C0.33 0 0.66 0 1 0 C1 5.94 1 11.88 1 18 C-0.32 17.67 -1.64 17.34 -3 17 C-2.50693359 16.20142578 -2.50693359 16.20142578 -2.00390625 15.38671875 C-0.73857905 12.37848948 -0.83851653 10.0631173 -0.9375 6.8125 C-0.99136681 4.87563691 -1.02051819 2.93750336 -1 1 C-0.67 0.67 -0.34 0.34 0 0 Z " fill="#EEFAFE" transform="translate(188,37)"/>
<path d="M0 0 C2.64 0 5.28 0 8 0 C8 5.94 8 11.88 8 18 C7.67 18 7.34 18 7 18 C6.67 13.05 6.34 8.1 6 3 C4.02 2.34 2.04 1.68 0 1 C0 0.67 0 0.34 0 0 Z " fill="#ECFBFE" transform="translate(156,19)"/>
<path d="M0 0 C0.66 0.99 1.32 1.98 2 3 C4.58380177 3.25030977 4.58380177 3.25030977 7 3 C7 2.34 7 1.68 7 1 C7.99 1.33 8.98 1.66 10 2 C7.03 4.475 7.03 4.475 4 7 C2.0625 6.25 2.0625 6.25 0 5 C-0.8125 2.9375 -0.8125 2.9375 -1 1 C-0.67 0.67 -0.34 0.34 0 0 Z " fill="#377666" transform="translate(11,48)"/>
<path d="M0 0 C0.33 0 0.66 0 1 0 C1 4.95 1 9.9 1 15 C-0.65 15 -2.3 15 -4 15 C-3.27876953 14.18789063 -3.27876953 14.18789063 -2.54296875 13.359375 C-0.68676442 10.52102712 -0.51262344 8.61207374 -0.3125 5.25 C-0.21388672 3.77273437 -0.21388672 3.77273437 -0.11328125 2.265625 C-0.07589844 1.51796875 -0.03851563 0.7703125 0 0 Z " fill="#EDFCFE" transform="translate(163,40)"/>
<path d="M0 0 C0.33 0.66 0.66 1.32 1 2 C1.99 2.33 2.98 2.66 4 3 C3.01 3.66 2.02 4.32 1 5 C-1.26171875 4.5390625 -1.26171875 4.5390625 -3.6875 3.625 C-4.49574219 3.32851563 -5.30398437 3.03203125 -6.13671875 2.7265625 C-6.75160156 2.48679688 -7.36648437 2.24703125 -8 2 C-5.33333333 1.33333333 -2.66666667 0.66666667 0 0 Z " fill="#37896A" transform="translate(37,48)"/>
<path d="M0 0 C0.66 0.33 1.32 0.66 2 1 C1.01 2.98 0.02 4.96 -1 7 C-2.32 6.67 -3.64 6.34 -5 6 C-3.35 4.02 -1.7 2.04 0 0 Z " fill="#387965" transform="translate(23,49)"/>
</svg>
